<svg xmlns="http://www.w3.org/2000/svg" height="20" viewBox="0 -960 960 960" width="20"><path d="M480.176-303Q554-303 605.5-354.676q51.5-51.677 51.5-125.5Q657-554 605.323-605.5 553.647-657 479.824-657 406-657 354.5-605.323 303-553.647 303-479.824 303-406 354.676-354.5q51.677 51.5 125.5 51.5Zm-.117-101q-31.642 0-53.851-22.15Q404-448.299 404-479.941q0-31.642 22.15-53.851Q448.299-556 479.941-556q31.642 0 53.851 22.149Q556-511.701 556-480.059q0 31.642-22.149 53.851Q511.701-404 480.059-404ZM480-149q-140 0-259-73.5T36-420q-8-14-11.5-29.227T21-479.692q0-15.239 3.5-30.774Q28-526 36-540q66-124 185-197.5T480-811q140 0 259 73.5T924-540q8 14 11.5 29.227t3.5 30.465q0 15.239-3.5 30.774Q932-434 924-420q-66 124-185 197.5T480-149Zm0-331Zm.089 218Q592-262 686.791-321.041T833-480q-51.418-99.918-146.298-158.959T479.911-698Q368-698 273.209-638.959T127-480q51.418 99.918 146.298 158.959T480.089-262Z"/></svg>